<?xml version="1.0" standalone="no"?>
<!DOCTYPE svg PUBLIC "-//W3C//DTD SVG 20010904//EN"
 "http://www.w3.org/TR/2001/REC-SVG-20010904/DTD/svg10.dtd">
<svg version="1.0" xmlns="http://www.w3.org/2000/svg"
 width="700.000000pt" height="700.000000pt" viewBox="0 0 700.000000 700.000000"
 preserveAspectRatio="xMidYMid meet">
<metadata>
Created by potrace 1.11, written by Peter Selinger 2001-2013
</metadata>
<g transform="translate(0.000000,700.000000) scale(0.100000,-0.100000)"
fill="#000000" stroke="none">
<path d="M6980 3505 l0 -3495 -3492 -3 -3493 -2 3503 -3 3502 -2 0 3500 c0
2327 -3 3500 -10 3500 -7 0 -10 -1172 -10 -3495z"/>
<path d="M3444 5722 c-50 -28 -1057 -768 -1084 -797 l-25 -27 0 -400 0 -400
37 -33 c20 -19 49 -37 63 -41 42 -11 96 5 127 38 47 51 51 85 43 409 l-7 296
447 328 c246 180 453 328 460 329 7 0 213 -145 458 -324 l446 -325 1 -180 c0
-202 8 -243 51 -279 63 -54 150 -40 199 31 25 36 25 37 25 283 l0 247 -25 36
c-16 23 -201 165 -520 398 -272 199 -517 377 -544 396 -55 38 -102 43 -152 15z"/>
<path d="M3475 4690 c-41 -9 -72 -30 -84 -57 -7 -16 -11 -165 -12 -431 -1
-224 -4 -430 -7 -458 l-7 -51 -250 153 c-137 85 -252 154 -255 153 -11 0 -120
-193 -113 -200 10 -10 1353 -829 1368 -836 7 -2 39 38 73 94 33 54 60 98 59
99 -1 1 -114 70 -252 154 -137 84 -252 154 -254 156 -2 2 170 89 382 193 334
164 389 195 407 223 49 80 -5 178 -97 178 -17 0 -190 -80 -423 -196 l-395
-195 -5 475 c-5 455 -6 476 -25 501 -26 34 -72 53 -110 45z"/>
<path d="M2680 3142 c-41 -18 -298 -178 -321 -199 -47 -43 -50 -79 -47 -468 3
-333 4 -362 22 -388 16 -24 996 -751 1087 -806 36 -22 82 -27 122 -12 31 12
1064 771 1097 806 l25 27 0 400 0 400 -37 33 c-43 40 -74 50 -125 40 -46 -8
-88 -50 -102 -101 -7 -24 -11 -155 -11 -344 l0 -305 -362 -265 c-199 -146
-402 -293 -449 -328 l-88 -63 -448 328 -448 329 -3 271 -2 271 70 41 c39 24
74 41 79 39 4 -2 143 -79 308 -173 l301 -170 3 -150 c3 -125 7 -156 22 -178
26 -40 76 -67 122 -67 48 1 75 15 107 55 23 29 23 34 23 252 l0 223 -35 33
c-27 27 -646 384 -797 461 -33 16 -86 20 -113 8z"/>
</g>
</svg>
